<svg width="2998" height="1742" xmlns="http://www.w3.org/2000/svg" xmlns:xlink="http://www.w3.org/1999/xlink" xml:space="preserve" overflow="hidden"><defs><clipPath id="clip0"><rect x="751" y="320" width="2998" height="1742"/></clipPath></defs><g clip-path="url(#clip0)" transform="translate(-751 -320)"><path d="M1278.5 358.001C1278.5 340.051 1293.05 325.5 1311 325.5L1754 325.5C1771.95 325.5 1786.5 340.051 1786.5 358.001L1786.5 487.999C1786.5 505.949 1771.95 520.5 1754 520.5L1311 520.5C1293.05 520.5 1278.5 505.949 1278.5 487.999Z" stroke="#2F528F" stroke-width="4.58333" stroke-linecap="butt" stroke-linejoin="miter" stroke-miterlimit="8" stroke-opacity="1" fill="none" fill-rule="evenodd"/><text fill="#000000" fill-opacity="1" font-family="Calibri,Calibri_MSFontService,sans-serif" font-style="normal" font-variant="normal" font-weight="400" font-stretch="normal" font-size="83" text-anchor="start" direction="ltr" writing-mode="lr-tb" unicode-bidi="normal" text-decoration="none" transform="matrix(1 0 0 1 1361.22 450)">CPU<tspan fill="#000000" fill-opacity="1" font-family="Calibri,Calibri_MSFontService,sans-serif" font-style="normal" font-variant="normal" font-weight="400" font-stretch="normal" font-size="83" text-anchor="start" direction="ltr" writing-mode="lr-tb" unicode-bidi="normal" text-decoration="none" x="158.125" y="0">CORE</tspan></text><path d="M1242.5 1549.5C1242.5 1520.23 1266.23 1496.5 1295.5 1496.5L1769.5 1496.5C1798.77 1496.5 1822.5 1520.23 1822.5 1549.5L1822.5 1761.5C1822.5 1790.77 1798.77 1814.5 1769.5 1814.5L1295.5 1814.5C1266.23 1814.5 1242.5 1790.77 1242.5 1761.5Z" stroke="#2F528F" stroke-width="4.58333" stroke-linecap="butt" stroke-linejoin="miter" stroke-miterlimit="8" stroke-opacity="1" fill="none" fill-rule="evenodd"/><text fill="#000000" fill-opacity="1" font-family="Calibri,Calibri_MSFontService,sans-serif" font-style="normal" font-variant="normal" font-weight="400" font-stretch="normal" font-size="83" text-anchor="start" direction="ltr" writing-mode="lr-tb" unicode-bidi="normal" text-decoration="none" transform="matrix(1 0 0 1 1398.17 1633)">Physical<tspan fill="#000000" fill-opacity="1" font-family="Calibri,Calibri_MSFontService,sans-serif" font-style="normal" font-variant="normal" font-weight="400" font-stretch="normal" font-size="83" text-anchor="start" direction="ltr" writing-mode="lr-tb" unicode-bidi="normal" text-decoration="none" x="-9.73962" y="99">Memor</tspan><tspan fill="#000000" fill-opacity="1" font-family="Calibri,Calibri_MSFontService,sans-serif" font-style="normal" font-variant="normal" font-weight="400" font-stretch="normal" font-size="83" text-anchor="start" direction="ltr" writing-mode="lr-tb" unicode-bidi="normal" text-decoration="none" x="240.052" y="99">y</tspan></text><path d="M1278.5 915.5 1532.5 756.5 1786.5 915.5 1532.5 1074.5Z" stroke="#2F528F" stroke-width="4.58333" stroke-linecap="butt" stroke-linejoin="miter" stroke-miterlimit="8" stroke-opacity="1" fill="none" fill-rule="evenodd"/><text fill="#000000" fill-opacity="1" font-family="Calibri,Calibri_MSFontService,sans-serif" font-style="normal" font-variant="normal" font-weight="400" font-stretch="normal" font-size="83" text-anchor="start" direction="ltr" writing-mode="lr-tb" unicode-bidi="normal" text-decoration="none" transform="matrix(1 0 0 1 1472.08 943)">TLB</text><path d="M2.29167-1.96118e-06 2.29201 398.791-2.29133 398.791-2.29167 1.96118e-06ZM13.7503 394.208 0.000360892 421.708-13.7497 394.208Z" fill="#000000" fill-rule="nonzero" fill-opacity="1" transform="matrix(-1 0 0 1 1532.5 1074.5)"/><path d="M1786.5 913.208 2198.67 913.209 2198.67 917.792 1786.5 917.792ZM2194.09 901.75 2221.59 915.5 2194.09 929.25Z" fill="#000000" fill-rule="nonzero" fill-opacity="1"/><path d="M2478.97 1074.5 2478.97 1657.46 1845.42 1657.46 1845.42 1652.88 2476.68 1652.88 2474.39 1655.17 2474.39 1074.5ZM1850 1668.92 1822.5 1655.17 1850 1641.42Z" fill="#000000" fill-rule="nonzero" fill-opacity="1"/><path d="M1534.79 520.5 1534.79 733.834 1530.21 733.834 1530.21 520.5ZM1546.25 729.25 1532.5 756.75 1518.75 729.25Z" fill="#000000" fill-rule="nonzero" fill-opacity="1"/><text fill="#000000" fill-opacity="1" font-family="Arial,Arial_MSFontService,sans-serif" font-style="normal" font-variant="normal" font-weight="400" font-stretch="normal" font-size="83" text-anchor="start" direction="ltr" writing-mode="lr-tb" unicode-bidi="normal" text-decoration="none" transform="matrix(1 0 0 1 1407.48 1315)">hit<tspan fill="#000000" fill-opacity="1" font-family="Arial,Arial_MSFontService,sans-serif" font-style="normal" font-variant="normal" font-weight="400" font-stretch="normal" font-size="83" text-anchor="start" direction="ltr" writing-mode="lr-tb" unicode-bidi="normal" text-decoration="none" x="520.912" y="-424">miss</tspan><tspan fill="#000000" fill-opacity="1" font-family="Arial,Arial_MSFontService,sans-serif" font-style="normal" font-variant="normal" font-weight="400" font-stretch="normal" font-size="83" text-anchor="start" direction="ltr" writing-mode="lr-tb" unicode-bidi="normal" text-decoration="none" x="713.248" y="318">hit</tspan></text><path d="M1.90088e-06-2.29167 412.169-2.29132 412.169 2.29201-1.90088e-06 2.29167ZM407.585-13.7497 435.085 0.000360892 407.585 13.7503Z" fill="#000000" fill-rule="nonzero" fill-opacity="1" transform="matrix(1 0 0 -1 2730.5 915.5)"/><path d="M3165.5 809.501C3165.5 780.23 3189.23 756.5 3218.5 756.5L3692.5 756.5C3721.77 756.5 3745.5 780.23 3745.5 809.501L3745.5 1021.5C3745.5 1050.77 3721.77 1074.5 3692.5 1074.5L3218.5 1074.5C3189.23 1074.5 3165.5 1050.77 3165.5 1021.5Z" stroke="#2F528F" stroke-width="4.58333" stroke-linecap="butt" stroke-linejoin="miter" stroke-miterlimit="8" stroke-opacity="1" fill="none" fill-rule="evenodd"/><text fill="#000000" fill-opacity="1" font-family="Calibri,Calibri_MSFontService,sans-serif" font-style="normal" font-variant="normal" font-weight="400" font-stretch="normal" font-size="83" text-anchor="start" direction="ltr" writing-mode="lr-tb" unicode-bidi="normal" text-decoration="none" transform="matrix(1 0 0 1 3385.55 943)">Disk<tspan fill="#000000" fill-opacity="1" font-family="Arial,Arial_MSFontService,sans-serif" font-style="normal" font-variant="normal" font-weight="400" font-stretch="normal" font-size="83" text-anchor="start" direction="ltr" writing-mode="lr-tb" unicode-bidi="normal" text-decoration="none" x="-513.218" y="-52">miss</tspan></text><path d="M3458 1074.5 3458 2023.68 1530.21 2023.68 1530.21 1837.05 1534.79 1837.05 1534.79 2021.39 1532.5 2019.1 3455.71 2019.1 3453.42 2021.39 3453.42 1074.5ZM1518.75 1841.64 1532.5 1814.14 1546.25 1841.64Z" fill="#000000" fill-rule="nonzero" fill-opacity="1"/><text fill="#000000" fill-opacity="1" font-family="Arial,Arial_MSFontService,sans-serif" font-style="normal" font-variant="normal" font-weight="400" font-stretch="normal" font-size="83" text-anchor="start" direction="ltr" writing-mode="lr-tb" unicode-bidi="normal" text-decoration="none" transform="matrix(1 0 0 1 2279.88 1990)">page<tspan fill="#000000" fill-opacity="1" font-family="Arial,Arial_MSFontService,sans-serif" font-style="normal" font-variant="normal" font-weight="400" font-stretch="normal" font-size="83" text-anchor="start" direction="ltr" writing-mode="lr-tb" unicode-bidi="normal" text-decoration="none" x="206.25" y="0">chang</tspan><tspan fill="#000000" fill-opacity="1" font-family="Arial,Arial_MSFontService,sans-serif" font-style="normal" font-variant="normal" font-weight="400" font-stretch="normal" font-size="83" text-anchor="start" direction="ltr" writing-mode="lr-tb" unicode-bidi="normal" text-decoration="none" x="430.833" y="0">e</tspan></text><path d="M0 2.29167-82.4994 2.29167-80.2077 0-80.2077 1232.44-82.4994 1230.15 12.4133 1230.15 12.4133 1234.73-84.7911 1234.73-84.7911-2.29167 0-2.29167ZM7.82992 1218.69 35.3299 1232.44 7.82992 1246.19Z" fill="#000000" fill-rule="nonzero" fill-opacity="1" transform="matrix(1 -1.22465e-16 -1.22465e-16 -1 1242.5 1654.94)"/><text fill="#000000" fill-opacity="1" font-family="Arial,Arial_MSFontService,sans-serif" font-style="normal" font-variant="normal" font-weight="400" font-stretch="normal" font-size="83" text-anchor="start" direction="ltr" writing-mode="lr-tb" unicode-bidi="normal" text-decoration="none" transform="matrix(1 0 0 1 883.685 1054)">page<tspan fill="#000000" fill-opacity="1" font-family="Arial,Arial_MSFontService,sans-serif" font-style="normal" font-variant="normal" font-weight="400" font-stretch="normal" font-size="83" text-anchor="start" direction="ltr" writing-mode="lr-tb" unicode-bidi="normal" text-decoration="none" x="-77.9167" y="99">response</tspan></text><path d="M2221.5 915.5 2476 756.5 2730.5 915.5 2476 1074.5Z" stroke="#2F528F" stroke-width="4.58333" stroke-linecap="butt" stroke-linejoin="miter" stroke-miterlimit="8" stroke-opacity="1" fill="none" fill-rule="evenodd"/><text fill="#000000" fill-opacity="1" font-family="Calibri,Calibri_MSFontService,sans-serif" font-style="normal" font-variant="normal" font-weight="400" font-stretch="normal" font-size="83" text-anchor="start" direction="ltr" writing-mode="lr-tb" unicode-bidi="normal" text-decoration="none" transform="matrix(1 0 0 1 2394.81 893)">Page <tspan fill="#000000" fill-opacity="1" font-family="Calibri,Calibri_MSFontService,sans-serif" font-style="normal" font-variant="normal" font-weight="400" font-stretch="normal" font-size="83" text-anchor="start" direction="ltr" writing-mode="lr-tb" unicode-bidi="normal" text-decoration="none" x="-10.5874" y="99">Table</tspan></text></g></svg>