<svg width="3951" height="1503" xmlns="http://www.w3.org/2000/svg" xmlns:xlink="http://www.w3.org/1999/xlink" xml:space="preserve" overflow="hidden"><defs><clipPath id="clip0"><rect x="224" y="504" width="3951" height="1503"/></clipPath></defs><g clip-path="url(#clip0)" transform="translate(-224 -504)"><path d="M2750 668.004C2750 578.532 2822.53 506 2912 506L3560 506C3649.47 506 3722 578.532 3722 668.004L3722 1573C3722 1662.47 3649.47 1735 3560 1735L2912 1735C2822.53 1735 2750 1662.47 2750 1573Z" fill="#C5E0B4" fill-rule="evenodd" fill-opacity="1"/><text fill="#000000" fill-opacity="1" font-family="Calibri,Calibri_MSFontService,sans-serif" font-style="normal" font-variant="normal" font-weight="400" font-stretch="normal" font-size="83" text-anchor="start" direction="ltr" writing-mode="lr-tb" unicode-bidi="normal" text-decoration="none" transform="matrix(1 0 0 1 3374 1099)">Physical<tspan fill="#000000" fill-opacity="1" font-family="Calibri,Calibri_MSFontService,sans-serif" font-style="normal" font-variant="normal" font-weight="400" font-stretch="normal" font-size="83" text-anchor="start" direction="ltr" writing-mode="lr-tb" unicode-bidi="normal" text-decoration="none" x="-19.479" y="99">Memor</tspan><tspan fill="#000000" fill-opacity="1" font-family="Calibri,Calibri_MSFontService,sans-serif" font-style="normal" font-variant="normal" font-weight="400" font-stretch="normal" font-size="83" text-anchor="start" direction="ltr" writing-mode="lr-tb" unicode-bidi="normal" text-decoration="none" x="230.313" y="99">y</tspan></text><path d="M227 710.837C227 597.708 318.708 506 431.836 506L1974.16 506C2087.29 506 2179 597.708 2179 710.837L2179 1530.16C2179 1643.29 2087.29 1735 1974.16 1735L431.836 1735C318.708 1735 227 1643.29 227 1530.16Z" fill="#ADB9CA" fill-rule="evenodd" fill-opacity="1"/><text fill="#000000" fill-opacity="1" font-family="Calibri,Calibri_MSFontService,sans-serif" font-style="normal" font-variant="normal" font-weight="400" font-stretch="normal" font-size="83" text-anchor="start" direction="ltr" writing-mode="lr-tb" unicode-bidi="normal" text-decoration="none" transform="matrix(1 0 0 1 319.799 660)">CPU</text><path d="M1445 846.336C1445 783.742 1495.74 733 1558.34 733L2011.66 733C2074.26 733 2125 783.742 2125 846.336L2125 1397.66C2125 1460.26 2074.26 1511 2011.66 1511L1558.34 1511C1495.74 1511 1445 1460.26 1445 1397.66Z" fill="#F4B183" fill-rule="evenodd" fill-opacity="1"/><text fill="#000000" fill-opacity="1" font-family="Calibri,Calibri_MSFontService,sans-serif" font-style="normal" font-variant="normal" font-weight="400" font-stretch="normal" font-size="83" text-anchor="start" direction="ltr" writing-mode="lr-tb" unicode-bidi="normal" text-decoration="none" transform="matrix(1 0 0 1 1688.12 860)">MMU</text><path d="M313 992.835C313 957.028 342.028 928 377.835 928L787.166 928C822.973 928 852 957.028 852 992.835L852 1252.17C852 1287.97 822.973 1317 787.166 1317L377.835 1317C342.028 1317 313 1287.97 313 1252.17Z" fill="#FFD966" fill-rule="evenodd" fill-opacity="1"/><text fill="#000000" fill-opacity="1" font-family="Calibri,Calibri_MSFontService,sans-serif" font-style="normal" font-variant="normal" font-weight="400" font-stretch="normal" font-size="83" text-anchor="start" direction="ltr" writing-mode="lr-tb" unicode-bidi="normal" text-decoration="none" transform="matrix(1 0 0 1 512.988 1100)">CPU<tspan fill="#000000" fill-opacity="1" font-family="Calibri,Calibri_MSFontService,sans-serif" font-style="normal" font-variant="normal" font-weight="400" font-stretch="normal" font-size="83" text-anchor="start" direction="ltr" writing-mode="lr-tb" unicode-bidi="normal" text-decoration="none" x="-9.16666" y="99">Cor</tspan><tspan fill="#000000" fill-opacity="1" font-family="Calibri,Calibri_MSFontService,sans-serif" font-style="normal" font-variant="normal" font-weight="400" font-stretch="normal" font-size="83" text-anchor="start" direction="ltr" writing-mode="lr-tb" unicode-bidi="normal" text-decoration="none" x="107.135" y="99">e</tspan></text><path d="M2847 705.834C2847 681.625 2866.63 662 2890.83 662L3182.17 662C3206.38 662 3226 681.625 3226 705.834L3226 881.166C3226 905.375 3206.38 925 3182.17 925L2890.83 925C2866.63 925 2847 905.375 2847 881.166Z" fill="#9DC3E6" fill-rule="evenodd" fill-opacity="1"/><text fill="#000000" fill-opacity="1" font-family="Calibri,Calibri_MSFontService,sans-serif" font-style="normal" font-variant="normal" font-weight="400" font-stretch="normal" font-size="83" text-anchor="start" direction="ltr" writing-mode="lr-tb" unicode-bidi="normal" text-decoration="none" transform="matrix(1 0 0 1 2955.51 771)">Page<tspan fill="#000000" fill-opacity="1" font-family="Calibri,Calibri_MSFontService,sans-serif" font-style="normal" font-variant="normal" font-weight="400" font-stretch="normal" font-size="83" text-anchor="start" direction="ltr" writing-mode="lr-tb" unicode-bidi="normal" text-decoration="none" x="-10.5874" y="99">Table</tspan></text><path d="M2847 1360.83C2847 1336.63 2866.63 1317 2890.83 1317L3182.17 1317C3206.38 1317 3226 1336.63 3226 1360.83L3226 1536.17C3226 1560.37 3206.38 1580 3182.17 1580L2890.83 1580C2866.63 1580 2847 1560.37 2847 1536.17Z" fill="#F4B183" fill-rule="evenodd" fill-opacity="1"/><text fill="#000000" fill-opacity="1" font-family="Calibri,Calibri_MSFontService,sans-serif" font-style="normal" font-variant="normal" font-weight="400" font-stretch="normal" font-size="83" text-anchor="start" direction="ltr" writing-mode="lr-tb" unicode-bidi="normal" text-decoration="none" transform="matrix(1 0 0 1 2902.82 1426)">Physical<tspan fill="#000000" fill-opacity="1" font-family="Calibri,Calibri_MSFontService,sans-serif" font-style="normal" font-variant="normal" font-weight="400" font-stretch="normal" font-size="83" text-anchor="start" direction="ltr" writing-mode="lr-tb" unicode-bidi="normal" text-decoration="none" x="-0.572998" y="99">Address</tspan></text><path d="M1532 992.835C1532 957.028 1561.03 928 1596.83 928L2005.17 928C2040.97 928 2070 957.028 2070 992.835L2070 1252.17C2070 1287.97 2040.97 1317 2005.17 1317L1596.83 1317C1561.03 1317 1532 1287.97 1532 1252.17Z" fill="#A9D18E" fill-rule="evenodd" fill-opacity="1"/><text fill="#000000" fill-opacity="1" font-family="Calibri,Calibri_MSFontService,sans-serif" font-style="normal" font-variant="normal" font-weight="400" font-stretch="normal" font-size="83" text-anchor="start" direction="ltr" writing-mode="lr-tb" unicode-bidi="normal" text-decoration="none" transform="matrix(1 0 0 1 1740.91 1150)">TLB</text><path d="M852.5 1111.04 1475.13 1111.04 1475.13 1133.96 852.5 1133.96ZM1463.68 1088.13 1532.43 1122.5 1463.68 1156.88Z" fill="#FF0000" fill-rule="nonzero" fill-opacity="1"/><path d="M0-11.4583 151.448-11.4583 151.448 328.746 139.99 317.288 720.086 317.288 720.086 340.204 128.532 340.204 128.532 0 139.99 11.4583 0 11.4583ZM708.628 294.371 777.378 328.746 708.628 363.121Z" fill="#FF0000" fill-rule="nonzero" fill-opacity="1" transform="matrix(1 0 0 -1 2070.5 1122.25)"/><path d="M2070.5 1111.04 2221.95 1111.04 2221.95 1448.54 2210.49 1437.08 2790.59 1437.08 2790.59 1460 2199.03 1460 2199.03 1122.5 2210.49 1133.96 2070.5 1133.96ZM2779.13 1414.17 2847.88 1448.54 2779.13 1482.92Z" fill="#FF0000" fill-rule="nonzero" fill-opacity="1"/><path d="M11.4583-1.05569e-05 11.4586 334.417-11.458 334.417-11.4583 1.05569e-05ZM34.3753 322.959 0.000360892 391.709-34.3747 322.959Z" fill="#FF0000" fill-rule="nonzero" fill-opacity="1" transform="matrix(-1 0 0 1 3037.5 925.5)"/><path d="M0 11.4583-379.08 11.4583-367.622 0-367.622 2454-379.08 2442.54 205.787 2442.54 205.787 2465.45-390.539 2465.45-390.539-11.4583 0-11.4583ZM194.329 2419.62 263.079 2454 194.329 2488.37Z" fill="#FF0000" fill-rule="nonzero" fill-opacity="1" transform="matrix(-6.12323e-17 -1 -1 6.12323e-17 3037.5 1580.58)"/><text fill="#000000" fill-opacity="1" font-family="Arial,Arial_MSFontService,sans-serif" font-style="normal" font-variant="normal" font-weight="400" font-stretch="normal" font-size="83" text-anchor="start" direction="ltr" writing-mode="lr-tb" unicode-bidi="normal" text-decoration="none" transform="matrix(1 0 0 1 1031.47 893)">Virtual<tspan fill="#000000" fill-opacity="1" font-family="Arial,Arial_MSFontService,sans-serif" font-style="normal" font-variant="normal" font-weight="400" font-stretch="normal" font-size="83" text-anchor="start" direction="ltr" writing-mode="lr-tb" unicode-bidi="normal" text-decoration="none" x="-29.7917" y="99">a</tspan><tspan fill="#000000" fill-opacity="1" font-family="Arial,Arial_MSFontService,sans-serif" font-style="normal" font-variant="normal" font-weight="400" font-stretch="normal" font-size="83" text-anchor="start" direction="ltr" writing-mode="lr-tb" unicode-bidi="normal" text-decoration="none" x="16.0416" y="99">ddress</tspan><tspan fill="#000000" fill-opacity="1" font-family="Arial,Arial_MSFontService,sans-serif" font-style="normal" font-variant="normal" font-weight="400" font-stretch="normal" font-size="83" text-anchor="start" direction="ltr" writing-mode="lr-tb" unicode-bidi="normal" text-decoration="none" x="-20.625" y="198">r</tspan><tspan fill="#000000" fill-opacity="1" font-family="Arial,Arial_MSFontService,sans-serif" font-style="normal" font-variant="normal" font-weight="400" font-stretch="normal" font-size="83" text-anchor="start" direction="ltr" writing-mode="lr-tb" unicode-bidi="normal" text-decoration="none" x="6.875" y="198">equest</tspan><tspan fill="#000000" fill-opacity="1" font-family="Arial,Arial_MSFontService,sans-serif" font-style="normal" font-variant="normal" font-weight="400" font-stretch="normal" font-size="83" text-anchor="start" direction="ltr" writing-mode="lr-tb" unicode-bidi="normal" text-decoration="none" x="1260.82" y="-124">TLB</tspan><tspan fill="#000000" fill-opacity="1" font-family="Arial,Arial_MSFontService,sans-serif" font-style="normal" font-variant="normal" font-weight="400" font-stretch="normal" font-size="83" text-anchor="start" direction="ltr" writing-mode="lr-tb" unicode-bidi="normal" text-decoration="none" x="1434.98" y="-124">mis</tspan><tspan fill="#000000" fill-opacity="1" font-family="Arial,Arial_MSFontService,sans-serif" font-style="normal" font-variant="normal" font-weight="400" font-stretch="normal" font-size="83" text-anchor="start" direction="ltr" writing-mode="lr-tb" unicode-bidi="normal" text-decoration="none" x="1563.32" y="-124">s</tspan><tspan fill="#000000" fill-opacity="1" font-family="Arial,Arial_MSFontService,sans-serif" font-style="normal" font-variant="normal" font-weight="400" font-stretch="normal" font-size="83" text-anchor="start" direction="ltr" writing-mode="lr-tb" unicode-bidi="normal" text-decoration="none" x="1302.07" y="531">TLB hit</tspan><tspan fill="#000000" fill-opacity="1" font-family="Arial,Arial_MSFontService,sans-serif" font-style="normal" font-variant="normal" font-weight="400" font-stretch="normal" font-size="83" text-anchor="start" direction="ltr" writing-mode="lr-tb" unicode-bidi="normal" text-decoration="none" x="583.676" y="1041">Response</tspan><tspan fill="#000000" fill-opacity="1" font-family="Arial,Arial_MSFontService,sans-serif" font-style="normal" font-variant="normal" font-weight="400" font-stretch="normal" font-size="83" text-anchor="start" direction="ltr" writing-mode="lr-tb" unicode-bidi="normal" text-decoration="none" x="1667.2" y="259">Table hit</tspan><tspan fill="#000000" fill-opacity="1" font-family="Arial,Arial_MSFontService,sans-serif" font-style="normal" font-variant="normal" font-weight="400" font-stretch="normal" font-size="83" text-anchor="start" direction="ltr" writing-mode="lr-tb" unicode-bidi="normal" text-decoration="none" x="2394.95" y="-122">Table miss</tspan></text><path d="M3859 977.335C3859 948.431 3882.43 925 3911.33 925L4120.67 925C4149.57 925 4173 948.431 4173 977.335L4173 1682.67C4173 1711.57 4149.57 1735 4120.67 1735L3911.33 1735C3882.43 1735 3859 1711.57 3859 1682.67Z" fill="#9DC3E6" fill-rule="evenodd" fill-opacity="1"/><text fill="#000000" fill-opacity="1" font-family="Calibri,Calibri_MSFontService,sans-serif" font-style="normal" font-variant="normal" font-weight="400" font-stretch="normal" font-size="83" text-anchor="start" direction="ltr" writing-mode="lr-tb" unicode-bidi="normal" text-decoration="none" transform="matrix(1 0 0 1 3946.3 1357)">Disk</text><path d="M3226.5 782.042 4027.96 782.042 4027.96 867.747 4005.04 867.747 4005.04 793.5 4016.5 804.958 3226.5 804.958ZM4050.88 856.289 4016.5 925.039 3982.12 856.289Z" fill="#FF0000" fill-rule="nonzero" fill-opacity="1"/></g></svg>